<?xml version="1.0" encoding="utf-8"?>
<!-- Generator: Adobe Illustrator 22.1.0, SVG Export Plug-In . SVG Version: 6.00 Build 0)  -->
<svg version="1.1" id="Livello_1" xmlns="http://www.w3.org/2000/svg" xmlns:xlink="http://www.w3.org/1999/xlink" x="0px" y="0px"
	 viewBox="0 0 1366 768" style="enable-background:new 0 0 1366 768;" xml:space="preserve">
<style type="text/css">
	.st0{clip-path:url(#SVGID_2_);}
	.st1{fill:none;stroke:#000000;stroke-miterlimit:10;}
	.st2{fill:#FFFFFF;stroke:#000000;stroke-miterlimit:10;}
	.st3{fill:none;stroke:#000000;stroke-width:1.3049;stroke-miterlimit:10;}
	.st4{clip-path:url(#SVGID_2_);fill:none;stroke:#000000;stroke-miterlimit:10;}
	.st5{fill:none;}
	.st6{opacity:0.9722;clip-path:url(#SVGID_2_);}
	.st7{opacity:0.9444;clip-path:url(#SVGID_2_);}
	.st8{opacity:0.9167;clip-path:url(#SVGID_2_);}
	.st9{opacity:0.8889;clip-path:url(#SVGID_2_);}
	.st10{opacity:0.8611;clip-path:url(#SVGID_2_);}
	.st11{opacity:0.8333;clip-path:url(#SVGID_2_);}
	.st12{opacity:0.8056;clip-path:url(#SVGID_2_);}
	.st13{opacity:0.7778;clip-path:url(#SVGID_2_);}
	.st14{opacity:0.75;clip-path:url(#SVGID_2_);}
	.st15{opacity:0.7222;clip-path:url(#SVGID_2_);}
	.st16{opacity:0.6944;clip-path:url(#SVGID_2_);}
	.st17{opacity:0.6667;clip-path:url(#SVGID_2_);}
	.st18{opacity:0.6389;clip-path:url(#SVGID_2_);}
	.st19{opacity:0.6111;clip-path:url(#SVGID_2_);}
	.st20{opacity:0.5833;clip-path:url(#SVGID_2_);}
	.st21{opacity:0.5556;clip-path:url(#SVGID_2_);}
	.st22{opacity:0.5278;clip-path:url(#SVGID_2_);}
	.st23{opacity:0.5;clip-path:url(#SVGID_2_);}
	.st24{opacity:0.4722;clip-path:url(#SVGID_2_);}
	.st25{opacity:0.4444;clip-path:url(#SVGID_2_);}
	.st26{opacity:0.4167;clip-path:url(#SVGID_2_);}
	.st27{opacity:0.3889;clip-path:url(#SVGID_2_);}
	.st28{opacity:0.3611;clip-path:url(#SVGID_2_);}
	.st29{opacity:0.3333;clip-path:url(#SVGID_2_);}
	.st30{opacity:0.3056;clip-path:url(#SVGID_2_);}
	.st31{opacity:0.2778;clip-path:url(#SVGID_2_);}
	.st32{opacity:0.25;clip-path:url(#SVGID_2_);}
	.st33{opacity:0.2222;clip-path:url(#SVGID_2_);}
	.st34{opacity:0.1944;clip-path:url(#SVGID_2_);}
	.st35{opacity:0.1667;clip-path:url(#SVGID_2_);}
	.st36{opacity:0.1389;clip-path:url(#SVGID_2_);}
	.st37{opacity:0.1111;clip-path:url(#SVGID_2_);}
	.st38{opacity:8.333300e-02;clip-path:url(#SVGID_2_);}
	.st39{opacity:5.555600e-02;clip-path:url(#SVGID_2_);}
	.st40{opacity:2.777800e-02;clip-path:url(#SVGID_2_);}
	.st41{opacity:0;clip-path:url(#SVGID_2_);}
	.st42{fill:#FFFFFF;}
</style>
<g>
	<defs>
		<rect id="SVGID_1_" width="1366" height="768"/>
	</defs>
	<clipPath id="SVGID_2_">
		<use xlink:href="#SVGID_1_"  style="overflow:visible;"/>
	</clipPath>
	<g class="st0">
		<g>
			<g>
				<rect x="1143.8" y="183.8" class="st1" width="3.4" height="18.3"/>
			</g>
			<g>
				
					<rect x="1144.1" y="182.1" transform="matrix(-1.836970e-16 1 -1 -1.836970e-16 1338.5164 -952.5856)" class="st1" width="2.9" height="21.7"/>
			</g>
		</g>
		<g>
			<g>
				<rect x="1112.6" y="210.2" class="st1" width="3.4" height="18.3"/>
			</g>
			<g>
				
					<rect x="1112.9" y="208.5" transform="matrix(-1.836970e-16 1 -1 -1.836970e-16 1333.623 -895.0087)" class="st1" width="2.9" height="21.7"/>
			</g>
		</g>
		<g>
			<g>
				<rect x="1081.4" y="236.5" class="st1" width="3.4" height="18.3"/>
			</g>
			<g>
				
					<rect x="1081.6" y="234.8" transform="matrix(-1.836970e-16 1 -1 -1.836970e-16 1328.7296 -837.4319)" class="st1" width="2.9" height="21.7"/>
			</g>
		</g>
		<g>
			<g>
				<rect x="1050.1" y="262.8" class="st1" width="3.4" height="18.3"/>
			</g>
			<g>
				
					<rect x="1050.4" y="261.1" transform="matrix(-1.836970e-16 1 -1 -1.836970e-16 1323.8363 -779.8552)" class="st1" width="2.9" height="21.7"/>
			</g>
		</g>
		<g>
			<g>
				<rect x="1018.9" y="289.2" class="st1" width="3.4" height="18.3"/>
			</g>
			<g>
				
					<rect x="1019.2" y="287.5" transform="matrix(-1.836970e-16 1 -1 -1.836970e-16 1318.943 -722.2783)" class="st1" width="2.9" height="21.7"/>
			</g>
		</g>
	</g>
	<g class="st0">
		<g>
			<g>
				<rect x="370.4" y="574.5" class="st1" width="3.4" height="18.3"/>
			</g>
			<g>
				
					<rect x="370.7" y="572.8" transform="matrix(-1.836970e-16 1 -1 -1.836970e-16 955.7459 211.533)" class="st1" width="2.9" height="21.7"/>
			</g>
		</g>
		<g>
			<g>
				<rect x="339.2" y="600.8" class="st1" width="3.4" height="18.3"/>
			</g>
			<g>
				
					<rect x="339.4" y="599.1" transform="matrix(-1.836970e-16 1 -1 -1.836970e-16 950.8526 269.1097)" class="st1" width="2.9" height="21.7"/>
			</g>
		</g>
		<g>
			<g>
				<rect x="307.9" y="627.2" class="st1" width="3.4" height="18.3"/>
			</g>
			<g>
				
					<rect x="308.2" y="625.5" transform="matrix(-1.836970e-16 1 -1 -1.836970e-16 945.9593 326.6865)" class="st1" width="2.9" height="21.7"/>
			</g>
		</g>
		<g>
			<g>
				<rect x="276.7" y="653.5" class="st1" width="3.4" height="18.3"/>
			</g>
			<g>
				
					<rect x="277" y="651.8" transform="matrix(-1.836970e-16 1 -1 -1.836970e-16 941.0659 384.2634)" class="st1" width="2.9" height="21.7"/>
			</g>
		</g>
		<g>
			<g>
				<rect x="245.5" y="679.9" class="st1" width="3.4" height="18.3"/>
			</g>
			<g>
				
					<rect x="245.7" y="678.2" transform="matrix(-1.836970e-16 1 -1 -1.836970e-16 936.1727 441.8401)" class="st1" width="2.9" height="21.7"/>
			</g>
		</g>
	</g>
	<g class="st0">
		<path d="M511.2-8.2L280.5,186.3c-10.9,9.2-25.3,14.2-40.7,14.2c-15.4,0-29.9-5.1-40.7-14.2S182.2,165,182.2,152
			c0-13,6-25.2,16.9-34.4L348.2-8.2h-2.6L197.8,116.5c-23.2,19.5-23.2,51.3,0,70.9c11.6,9.8,26.8,14.7,42,14.7
			c15.2,0,30.4-4.9,42-14.7L513.8-8.2H511.2z"/>
	</g>
	<g class="st0">
		<path class="st2" d="M731.7,773.3l228.7-192.9c22.5-18.9,59-18.9,81.5,0c22.5,18.9,22.5,49.8,0,68.7L894.6,773.3h2.6l145.9-123.1
			c11.2-9.5,17.4-22.1,17.4-35.4c0-13.4-6.2-26-17.4-35.4c-23.2-19.5-60.9-19.5-84.1,0l-230,194H731.7z"/>
	</g>
	<g class="st0">
		<ellipse class="st1" cx="1063.6" cy="547.4" rx="6.8" ry="5.7"/>
		<ellipse class="st1" cx="1190.9" cy="439.9" rx="6.8" ry="5.7"/>
		<path class="st3" d="M1167.7,479c-6.4,5.4-16.7,5.4-23,0c-6.4-5.4-6.4-14.1,0-19.4c6.4-5.4,16.7-5.4,23,0
			C1174,464.9,1174,473.6,1167.7,479z"/>
		<ellipse class="st1" cx="1109.3" cy="508.8" rx="27.9" ry="23.5"/>
	</g>
	<g class="st0">
		<path class="st1" d="M240.6,288.3c2.6-2.2,6.9-2.2,9.6,0c2.6,2.2,2.6,5.9,0,8.1c-2.6,2.2-6.9,2.2-9.6,0
			C238,294.1,238,290.5,240.6,288.3z"/>
		<path class="st1" d="M113.3,395.7c2.6-2.2,6.9-2.2,9.6,0c2.6,2.2,2.6,5.9,0,8.1c-2.6,2.2-6.9,2.2-9.6,0
			C110.6,401.5,110.6,397.9,113.3,395.7z"/>
		<path class="st3" d="M141.3,360.7c6.4-5.4,16.7-5.4,23,0c6.4,5.4,6.4,14.1,0,19.4c-6.4,5.4-16.7,5.4-23,0
			C135,374.8,135,366.1,141.3,360.7z"/>
		<ellipse class="st1" cx="199.7" cy="330.9" rx="27.9" ry="23.5"/>
	</g>
	<g class="st0">
		<polygon class="st2" points="-4.1,627 395.3,290.1 394,289.1 -4.1,624.8 		"/>
	</g>
	<g class="st0">
		<polygon class="st2" points="-4.1,654.6 290.9,405.8 289.6,404.7 -4.1,652.4 		"/>
	</g>
	<g class="st0">
		<polygon class="st2" points="1333.1,-8.2 927.7,333.7 929,334.8 1335.7,-8.2 		"/>
	</g>
	<g class="st0">
		<polygon class="st2" points="498.1,773.3 786.6,530 785.3,528.9 495.5,773.3 		"/>
	</g>
	<g class="st0">
		<polygon class="st2" points="1371.2,55 1115.4,270.7 1116.7,271.8 1371.2,57.2 		"/>
	</g>
	<polygon class="st4" points="935.3,74.5 1042,168.9 1085.6,43.8 	"/>
	<g class="st0">
		<polygon class="st1" points="513.8,643.9 558.6,683.5 576.9,631 		"/>
		<polygon class="st1" points="635.5,570.5 648.9,582.4 654.4,566.6 		"/>
		<polygon class="st1" points="590.1,598.6 611.9,617.9 620.8,592.4 		"/>
	</g>
	<g class="st0">
		<polygon class="st1" points="850.5,198 888.4,231.1 903.5,186.8 		"/>
		<polygon class="st1" points="952.5,135.6 963.9,145.5 968.4,132.3 		"/>
		<polygon class="st1" points="914.5,159.5 932.9,175.7 940.3,154.1 		"/>
	</g>
	<g class="st0">
		<g>
			<g>
				<g>
					<g>
						<rect x="652.8" y="166.9" class="st1" width="2.4" height="12.9"/>
					</g>
					<g>
						
							<rect x="652.9" y="165.7" transform="matrix(-1.836970e-16 1 -1 -1.836970e-16 827.2656 -480.6463)" class="st1" width="2" height="15.3"/>
					</g>
				</g>
				<g>
					<g>
						<rect x="670.9" y="151.6" class="st1" width="2.4" height="12.9"/>
					</g>
					<g>
						
							<rect x="671.1" y="150.4" transform="matrix(-1.836970e-16 1 -1 -1.836970e-16 830.1041 -514.0442)" class="st1" width="2" height="15.3"/>
					</g>
				</g>
				<g>
					<g>
						<rect x="689" y="136.3" class="st1" width="2.4" height="12.9"/>
					</g>
					<g>
						
							<rect x="689.2" y="135.1" transform="matrix(-1.836970e-16 1 -1 -1.836970e-16 832.9425 -547.4421)" class="st1" width="2" height="15.3"/>
					</g>
				</g>
				<g>
					<g>
						<rect x="707.1" y="121" class="st1" width="2.4" height="12.9"/>
					</g>
					<g>
						
							<rect x="707.3" y="119.8" transform="matrix(-1.836970e-16 1 -1 -1.836970e-16 835.781 -580.84)" class="st1" width="2" height="15.3"/>
					</g>
				</g>
				<g>
					<g>
						<rect x="725.2" y="105.8" class="st1" width="2.4" height="12.9"/>
					</g>
					<g>
						
							<rect x="725.4" y="104.6" transform="matrix(-1.836970e-16 1 -1 -1.836970e-16 838.6193 -614.238)" class="st1" width="2" height="15.3"/>
					</g>
				</g>
				<g>
					<g>
						<rect x="743.3" y="90.5" class="st1" width="2.4" height="12.9"/>
					</g>
					<g>
						
							<rect x="743.5" y="89.3" transform="matrix(-1.836970e-16 1 -1 -1.836970e-16 841.4579 -647.6359)" class="st1" width="2" height="15.3"/>
					</g>
				</g>
				<g>
					<g>
						<rect x="761.5" y="75.2" class="st1" width="2.4" height="12.9"/>
					</g>
					<g>
						
							<rect x="761.7" y="74" transform="matrix(-1.836970e-16 1 -1 -1.836970e-16 844.2962 -681.0338)" class="st1" width="2" height="15.3"/>
					</g>
				</g>
				<g>
					<g>
						<rect x="779.6" y="59.9" class="st1" width="2.4" height="12.9"/>
					</g>
					<g>
						
							<rect x="779.8" y="58.7" transform="matrix(-1.836970e-16 1 -1 -1.836970e-16 847.1347 -714.4318)" class="st1" width="2" height="15.3"/>
					</g>
				</g>
				<g>
					<g>
						<rect x="797.7" y="44.6" class="st1" width="2.4" height="12.9"/>
					</g>
					<g>
						
							<rect x="797.9" y="43.4" transform="matrix(-1.836970e-16 1 -1 -1.836970e-16 849.973 -747.8297)" class="st1" width="2" height="15.3"/>
					</g>
				</g>
				<g>
					<g>
						<rect x="815.8" y="29.4" class="st1" width="2.4" height="12.9"/>
					</g>
					<g>
						
							<rect x="816" y="28.2" transform="matrix(-1.836970e-16 1 -1 -1.836970e-16 852.8115 -781.2277)" class="st1" width="2" height="15.3"/>
					</g>
				</g>
			</g>
			<g>
				<g>
					<g>
						<rect x="669.2" y="180.8" class="st1" width="2.4" height="12.9"/>
					</g>
					<g>
						
							<rect x="669.4" y="179.6" transform="matrix(-1.836970e-16 1 -1 -1.836970e-16 857.6508 -483.2287)" class="st1" width="2" height="15.3"/>
					</g>
				</g>
				<g>
					<g>
						<rect x="687.4" y="165.5" class="st1" width="2.4" height="12.9"/>
					</g>
					<g>
						
							<rect x="687.5" y="164.3" transform="matrix(-1.836970e-16 1 -1 -1.836970e-16 860.4892 -516.6265)" class="st1" width="2" height="15.3"/>
					</g>
				</g>
				<g>
					<g>
						<rect x="705.5" y="150.2" class="st1" width="2.4" height="12.9"/>
					</g>
					<g>
						
							<rect x="705.7" y="149" transform="matrix(-1.836970e-16 1 -1 -1.836970e-16 863.3277 -550.0245)" class="st1" width="2" height="15.3"/>
					</g>
				</g>
				<g>
					<g>
						<rect x="723.6" y="134.9" class="st1" width="2.4" height="12.9"/>
					</g>
					<g>
						
							<rect x="723.8" y="133.7" transform="matrix(-1.836970e-16 1 -1 -1.836970e-16 866.166 -583.4224)" class="st1" width="2" height="15.3"/>
					</g>
				</g>
				<g>
					<g>
						<rect x="741.7" y="119.7" class="st1" width="2.4" height="12.9"/>
					</g>
					<g>
						
							<rect x="741.9" y="118.5" transform="matrix(-1.836970e-16 1 -1 -1.836970e-16 869.0045 -616.8204)" class="st1" width="2" height="15.3"/>
					</g>
				</g>
				<g>
					<g>
						<rect x="759.8" y="104.4" class="st1" width="2.4" height="12.9"/>
					</g>
					<g>
						
							<rect x="760" y="103.2" transform="matrix(-1.836970e-16 1 -1 -1.836970e-16 871.8429 -650.2184)" class="st1" width="2" height="15.3"/>
					</g>
				</g>
				<g>
					<g>
						<rect x="777.9" y="89.1" class="st1" width="2.4" height="12.9"/>
					</g>
					<g>
						
							<rect x="778.1" y="87.9" transform="matrix(-1.836970e-16 1 -1 -1.836970e-16 874.6814 -683.6162)" class="st1" width="2" height="15.3"/>
					</g>
				</g>
				<g>
					<g>
						<rect x="796.1" y="73.8" class="st1" width="2.4" height="12.9"/>
					</g>
					<g>
						
							<rect x="796.3" y="72.6" transform="matrix(-1.836970e-16 1 -1 -1.836970e-16 877.5197 -717.0142)" class="st1" width="2" height="15.3"/>
					</g>
				</g>
				<g>
					<g>
						<rect x="814.2" y="58.5" class="st1" width="2.4" height="12.9"/>
					</g>
					<g>
						
							<rect x="814.4" y="57.3" transform="matrix(-1.836970e-16 1 -1 -1.836970e-16 880.3582 -750.412)" class="st1" width="2" height="15.3"/>
					</g>
				</g>
				<g>
					<g>
						<rect x="832.3" y="43.3" class="st1" width="2.4" height="12.9"/>
					</g>
					<g>
						
							<rect x="832.5" y="42.1" transform="matrix(-1.836970e-16 1 -1 -1.836970e-16 883.1966 -783.81)" class="st1" width="2" height="15.3"/>
					</g>
				</g>
			</g>
			<g>
				<g>
					<g>
						<rect x="685.7" y="194.7" class="st1" width="2.4" height="12.9"/>
					</g>
					<g>
						
							<rect x="685.9" y="193.5" transform="matrix(-1.836970e-16 1 -1 -1.836970e-16 888.0359 -485.811)" class="st1" width="2" height="15.3"/>
					</g>
				</g>
				<g>
					<g>
						<rect x="703.8" y="179.4" class="st1" width="2.4" height="12.9"/>
					</g>
					<g>
						
							<rect x="704" y="178.2" transform="matrix(-1.836970e-16 1 -1 -1.836970e-16 890.8743 -519.209)" class="st1" width="2" height="15.3"/>
					</g>
				</g>
				<g>
					<g>
						<rect x="722" y="164.1" class="st1" width="2.4" height="12.9"/>
					</g>
					<g>
						
							<rect x="722.1" y="162.9" transform="matrix(-1.836970e-16 1 -1 -1.836970e-16 893.7128 -552.6069)" class="st1" width="2" height="15.3"/>
					</g>
				</g>
				<g>
					<g>
						<rect x="740.1" y="148.8" class="st1" width="2.4" height="12.9"/>
					</g>
					<g>
						
							<rect x="740.3" y="147.6" transform="matrix(-1.836970e-16 1 -1 -1.836970e-16 896.5511 -586.0048)" class="st1" width="2" height="15.3"/>
					</g>
				</g>
				<g>
					<g>
						<rect x="758.2" y="133.6" class="st1" width="2.4" height="12.9"/>
					</g>
					<g>
						
							<rect x="758.4" y="132.4" transform="matrix(-1.836970e-16 1 -1 -1.836970e-16 899.3896 -619.4027)" class="st1" width="2" height="15.3"/>
					</g>
				</g>
				<g>
					<g>
						<rect x="776.3" y="118.3" class="st1" width="2.4" height="12.9"/>
					</g>
					<g>
						
							<rect x="776.5" y="117.1" transform="matrix(-1.836970e-16 1 -1 -1.836970e-16 902.228 -652.8007)" class="st1" width="2" height="15.3"/>
					</g>
				</g>
				<g>
					<g>
						<rect x="794.4" y="103" class="st1" width="2.4" height="12.9"/>
					</g>
					<g>
						
							<rect x="794.6" y="101.8" transform="matrix(-1.836970e-16 1 -1 -1.836970e-16 905.0665 -686.1986)" class="st1" width="2" height="15.3"/>
					</g>
				</g>
				<g>
					<g>
						<rect x="812.5" y="87.7" class="st1" width="2.4" height="12.9"/>
					</g>
					<g>
						
							<rect x="812.7" y="86.5" transform="matrix(-1.836970e-16 1 -1 -1.836970e-16 907.9048 -719.5965)" class="st1" width="2" height="15.3"/>
					</g>
				</g>
				<g>
					<g>
						<rect x="830.7" y="72.4" class="st1" width="2.4" height="12.9"/>
					</g>
					<g>
						
							<rect x="830.9" y="71.2" transform="matrix(-1.836970e-16 1 -1 -1.836970e-16 910.7433 -752.9944)" class="st1" width="2" height="15.3"/>
					</g>
				</g>
				<g>
					<g>
						<rect x="848.8" y="57.2" class="st1" width="2.4" height="12.9"/>
					</g>
					<g>
						
							<rect x="849" y="56" transform="matrix(-1.836970e-16 1 -1 -1.836970e-16 913.5817 -786.3923)" class="st1" width="2" height="15.3"/>
					</g>
				</g>
			</g>
		</g>
		<g>
			<g>
				<rect x="652.8" y="166.9" class="st1" width="2.4" height="12.9"/>
			</g>
			<g>
				
					<rect x="652.9" y="165.7" transform="matrix(-1.836970e-16 1 -1 -1.836970e-16 827.2656 -480.6463)" class="st1" width="2" height="15.3"/>
			</g>
		</g>
		<g>
			<g>
				<rect x="741.7" y="119.7" class="st1" width="2.4" height="12.9"/>
			</g>
			<g>
				
					<rect x="741.9" y="118.5" transform="matrix(-1.836970e-16 1 -1 -1.836970e-16 869.0045 -616.8204)" class="st1" width="2" height="15.3"/>
			</g>
		</g>
		<g>
			<g>
				<rect x="830.7" y="72.4" class="st1" width="2.4" height="12.9"/>
			</g>
			<g>
				
					<rect x="830.9" y="71.2" transform="matrix(-1.836970e-16 1 -1 -1.836970e-16 910.7433 -752.9944)" class="st1" width="2" height="15.3"/>
			</g>
		</g>
	</g>
	<g class="st0">
		<g>
			<g>
				<g>
					<g>
						<rect x="646.5" y="686.2" class="st1" width="2.4" height="12.9"/>
					</g>
					<g>
						
							<rect x="646.7" y="685" transform="matrix(-1.836970e-16 1 -1 -1.836970e-16 1340.3574 44.8892)" class="st1" width="2" height="15.3"/>
					</g>
				</g>
				<g>
					<g>
						<rect x="664.6" y="670.9" class="st1" width="2.4" height="12.9"/>
					</g>
					<g>
						
							<rect x="664.8" y="669.7" transform="matrix(-1.836970e-16 1 -1 -1.836970e-16 1343.1959 11.4912)" class="st1" width="2" height="15.3"/>
					</g>
				</g>
				<g>
					<g>
						<rect x="682.8" y="655.6" class="st1" width="2.4" height="12.9"/>
					</g>
					<g>
						
							<rect x="683" y="654.4" transform="matrix(-1.836970e-16 1 -1 -1.836970e-16 1346.0343 -21.9066)" class="st1" width="2" height="15.3"/>
					</g>
				</g>
				<g>
					<g>
						<rect x="700.9" y="640.3" class="st1" width="2.4" height="12.9"/>
					</g>
					<g>
						
							<rect x="701.1" y="639.2" transform="matrix(-1.836970e-16 1 -1 -1.836970e-16 1348.8728 -55.3046)" class="st1" width="2" height="15.3"/>
					</g>
				</g>
				<g>
					<g>
						<rect x="719" y="625.1" class="st1" width="2.4" height="12.9"/>
					</g>
					<g>
						
							<rect x="719.2" y="623.9" transform="matrix(-1.836970e-16 1 -1 -1.836970e-16 1351.7113 -88.7025)" class="st1" width="2" height="15.3"/>
					</g>
				</g>
				<g>
					<g>
						<rect x="737.1" y="609.8" class="st1" width="2.4" height="12.9"/>
					</g>
					<g>
						
							<rect x="737.3" y="608.6" transform="matrix(-1.836970e-16 1 -1 -1.836970e-16 1354.5497 -122.1004)" class="st1" width="2" height="15.3"/>
					</g>
				</g>
				<g>
					<g>
						<rect x="755.2" y="594.5" class="st1" width="2.4" height="12.9"/>
					</g>
					<g>
						
							<rect x="755.4" y="593.3" transform="matrix(-1.836970e-16 1 -1 -1.836970e-16 1357.3881 -155.4984)" class="st1" width="2" height="15.3"/>
					</g>
				</g>
				<g>
					<g>
						<rect x="773.4" y="579.2" class="st1" width="2.4" height="12.9"/>
					</g>
					<g>
						
							<rect x="773.5" y="578" transform="matrix(-1.836970e-16 1 -1 -1.836970e-16 1360.2266 -188.8963)" class="st1" width="2" height="15.3"/>
					</g>
				</g>
				<g>
					<g>
						<rect x="791.5" y="564" class="st1" width="2.4" height="12.9"/>
					</g>
					<g>
						
							<rect x="791.7" y="562.8" transform="matrix(-1.836970e-16 1 -1 -1.836970e-16 1363.0648 -222.2943)" class="st1" width="2" height="15.3"/>
					</g>
				</g>
				<g>
					<g>
						<rect x="809.6" y="548.7" class="st1" width="2.4" height="12.9"/>
					</g>
					<g>
						
							<rect x="809.8" y="547.5" transform="matrix(-1.836970e-16 1 -1 -1.836970e-16 1365.9033 -255.6921)" class="st1" width="2" height="15.3"/>
					</g>
				</g>
			</g>
			<g>
				<g>
					<g>
						<rect x="663" y="700.1" class="st1" width="2.4" height="12.9"/>
					</g>
					<g>
						
							<rect x="663.2" y="698.9" transform="matrix(-1.836970e-16 1 -1 -1.836970e-16 1370.7426 42.3067)" class="st1" width="2" height="15.3"/>
					</g>
				</g>
				<g>
					<g>
						<rect x="681.1" y="684.8" class="st1" width="2.4" height="12.9"/>
					</g>
					<g>
						
							<rect x="681.3" y="683.6" transform="matrix(-1.836970e-16 1 -1 -1.836970e-16 1373.5811 8.9089)" class="st1" width="2" height="15.3"/>
					</g>
				</g>
				<g>
					<g>
						<rect x="699.3" y="669.5" class="st1" width="2.4" height="12.9"/>
					</g>
					<g>
						
							<rect x="699.4" y="668.3" transform="matrix(-1.836970e-16 1 -1 -1.836970e-16 1376.4194 -24.4891)" class="st1" width="2" height="15.3"/>
					</g>
				</g>
				<g>
					<g>
						<rect x="717.4" y="654.3" class="st1" width="2.4" height="12.9"/>
					</g>
					<g>
						
							<rect x="717.6" y="653.1" transform="matrix(-1.836970e-16 1 -1 -1.836970e-16 1379.2579 -57.8869)" class="st1" width="2" height="15.3"/>
					</g>
				</g>
				<g>
					<g>
						<rect x="735.5" y="639" class="st1" width="2.4" height="12.9"/>
					</g>
					<g>
						
							<rect x="735.7" y="637.8" transform="matrix(-1.836970e-16 1 -1 -1.836970e-16 1382.0963 -91.2849)" class="st1" width="2" height="15.3"/>
					</g>
				</g>
				<g>
					<g>
						<rect x="753.6" y="623.7" class="st1" width="2.4" height="12.9"/>
					</g>
					<g>
						
							<rect x="753.8" y="622.5" transform="matrix(-1.836970e-16 1 -1 -1.836970e-16 1384.9348 -124.6827)" class="st1" width="2" height="15.3"/>
					</g>
				</g>
				<g>
					<g>
						<rect x="771.7" y="608.4" class="st1" width="2.4" height="12.9"/>
					</g>
					<g>
						
							<rect x="771.9" y="607.2" transform="matrix(-1.836970e-16 1 -1 -1.836970e-16 1387.7732 -158.0807)" class="st1" width="2" height="15.3"/>
					</g>
				</g>
				<g>
					<g>
						<rect x="789.8" y="593.1" class="st1" width="2.4" height="12.9"/>
					</g>
					<g>
						
							<rect x="790" y="591.9" transform="matrix(-1.836970e-16 1 -1 -1.836970e-16 1390.6116 -191.4786)" class="st1" width="2" height="15.3"/>
					</g>
				</g>
				<g>
					<g>
						<rect x="808" y="577.9" class="st1" width="2.4" height="12.9"/>
					</g>
					<g>
						
							<rect x="808.1" y="576.7" transform="matrix(-1.836970e-16 1 -1 -1.836970e-16 1393.45 -224.8766)" class="st1" width="2" height="15.3"/>
					</g>
				</g>
				<g>
					<g>
						<rect x="826.1" y="562.6" class="st1" width="2.4" height="12.9"/>
					</g>
					<g>
						
							<rect x="826.3" y="561.4" transform="matrix(-1.836970e-16 1 -1 -1.836970e-16 1396.2885 -258.2746)" class="st1" width="2" height="15.3"/>
					</g>
				</g>
			</g>
			<g>
				<g>
					<g>
						<rect x="679.5" y="714" class="st1" width="2.4" height="12.9"/>
					</g>
					<g>
						
							<rect x="679.7" y="712.8" transform="matrix(-1.836970e-16 1 -1 -1.836970e-16 1401.1277 39.7245)" class="st1" width="2" height="15.3"/>
					</g>
				</g>
				<g>
					<g>
						<rect x="697.6" y="698.7" class="st1" width="2.4" height="12.9"/>
					</g>
					<g>
						
							<rect x="697.8" y="697.5" transform="matrix(-1.836970e-16 1 -1 -1.836970e-16 1403.9662 6.3265)" class="st1" width="2" height="15.3"/>
					</g>
				</g>
				<g>
					<g>
						<rect x="715.7" y="683.4" class="st1" width="2.4" height="12.9"/>
					</g>
					<g>
						
							<rect x="715.9" y="682.2" transform="matrix(-1.836970e-16 1 -1 -1.836970e-16 1406.8046 -27.0714)" class="st1" width="2" height="15.3"/>
					</g>
				</g>
				<g>
					<g>
						<rect x="733.9" y="668.2" class="st1" width="2.4" height="12.9"/>
					</g>
					<g>
						
							<rect x="734" y="667" transform="matrix(-1.836970e-16 1 -1 -1.836970e-16 1409.6429 -60.4693)" class="st1" width="2" height="15.3"/>
					</g>
				</g>
				<g>
					<g>
						<rect x="752" y="652.9" class="st1" width="2.4" height="12.9"/>
					</g>
					<g>
						
							<rect x="752.2" y="651.7" transform="matrix(-1.836970e-16 1 -1 -1.836970e-16 1412.4814 -93.8673)" class="st1" width="2" height="15.3"/>
					</g>
				</g>
				<g>
					<g>
						<rect x="770.1" y="637.6" class="st1" width="2.4" height="12.9"/>
					</g>
					<g>
						
							<rect x="770.3" y="636.4" transform="matrix(-1.836970e-16 1 -1 -1.836970e-16 1415.3197 -127.2652)" class="st1" width="2" height="15.3"/>
					</g>
				</g>
				<g>
					<g>
						<rect x="788.2" y="622.3" class="st1" width="2.4" height="12.9"/>
					</g>
					<g>
						
							<rect x="788.4" y="621.1" transform="matrix(-1.836970e-16 1 -1 -1.836970e-16 1418.1583 -160.6631)" class="st1" width="2" height="15.3"/>
					</g>
				</g>
				<g>
					<g>
						<rect x="806.3" y="607" class="st1" width="2.4" height="12.9"/>
					</g>
					<g>
						
							<rect x="806.5" y="605.8" transform="matrix(-1.836970e-16 1 -1 -1.836970e-16 1420.9967 -194.0611)" class="st1" width="2" height="15.3"/>
					</g>
				</g>
				<g>
					<g>
						<rect x="824.4" y="591.8" class="st1" width="2.4" height="12.9"/>
					</g>
					<g>
						
							<rect x="824.6" y="590.6" transform="matrix(-1.836970e-16 1 -1 -1.836970e-16 1423.8352 -227.4589)" class="st1" width="2" height="15.3"/>
					</g>
				</g>
				<g>
					<g>
						<rect x="842.6" y="576.5" class="st1" width="2.4" height="12.9"/>
					</g>
					<g>
						
							<rect x="842.8" y="575.3" transform="matrix(-1.836970e-16 1 -1 -1.836970e-16 1426.6736 -260.8569)" class="st1" width="2" height="15.3"/>
					</g>
				</g>
			</g>
		</g>
		<g>
			<g>
				<rect x="646.5" y="686.2" class="st2" width="2.4" height="12.9"/>
			</g>
			<g>
				
					<rect x="646.7" y="685" transform="matrix(-1.836970e-16 1 -1 -1.836970e-16 1340.3574 44.8892)" class="st2" width="2" height="15.3"/>
			</g>
		</g>
		<g>
			<g>
				<rect x="735.5" y="639" class="st2" width="2.4" height="12.9"/>
			</g>
			<g>
				
					<rect x="735.7" y="637.8" transform="matrix(-1.836970e-16 1 -1 -1.836970e-16 1382.0963 -91.2849)" class="st2" width="2" height="15.3"/>
			</g>
		</g>
		<g>
			<g>
				<rect x="824.4" y="591.8" class="st2" width="2.4" height="12.9"/>
			</g>
			<g>
				
					<rect x="824.6" y="590.6" transform="matrix(-1.836970e-16 1 -1 -1.836970e-16 1423.8352 -227.4589)" class="st2" width="2" height="15.3"/>
			</g>
		</g>
	</g>
	<ellipse class="st4" cx="473.8" cy="222.3" rx="112.3" ry="94.7"/>
	<ellipse class="st4" cx="1190.9" cy="439.9" rx="112.3" ry="94.7"/>
	<g class="st0">
		<path class="st2" d="M217.7,809.4c-62.4,0-113.2-42.8-113.2-95.4c0-52.6,50.8-95.4,113.2-95.4c62.4,0,113.2,42.8,113.2,95.4
			C330.9,766.6,280.2,809.4,217.7,809.4z M217.7,620.1c-61.4,0-111.4,42.1-111.4,93.9c0,51.8,50,93.9,111.4,93.9
			s111.4-42.1,111.4-93.9C329.1,662.2,279.2,620.1,217.7,620.1z"/>
	</g>
	<g class="st0">
		<polygon class="st5" points="-4.1,355.7 427.3,-8.2 424.8,-8.2 -4.1,353.5 		"/>
	</g>
	<g class="st6">
		<polygon class="st5" points="-4.1,351 421.7,-8.2 419.1,-8.2 -4.1,348.8 		"/>
	</g>
	<g class="st7">
		<polygon class="st5" points="-4.1,346.2 416.1,-8.2 413.5,-8.2 -4.1,344 		"/>
	</g>
	<g class="st8">
		<polygon class="st5" points="-4.1,341.4 410.4,-8.2 407.8,-8.2 -4.1,339.3 		"/>
	</g>
	<g class="st9">
		<polygon class="st5" points="-4.1,336.7 404.8,-8.2 402.2,-8.2 -4.1,334.5 		"/>
	</g>
	<g class="st10">
		<polygon class="st5" points="-4.1,331.9 399.1,-8.2 396.6,-8.2 -4.1,329.8 		"/>
	</g>
	<g class="st11">
		<polygon class="st5" points="-4.1,327.2 393.5,-8.2 390.9,-8.2 -4.1,325 		"/>
	</g>
	<g class="st12">
		<polygon class="st5" points="-4.1,322.4 387.9,-8.2 385.3,-8.2 -4.1,320.2 		"/>
	</g>
	<g class="st13">
		<polygon class="st5" points="-4.1,317.7 382.2,-8.2 379.6,-8.2 -4.1,315.5 		"/>
	</g>
	<g class="st14">
		<polygon class="st5" points="-4.1,312.9 376.6,-8.2 374,-8.2 -4.1,310.7 		"/>
	</g>
	<g class="st15">
		<polygon class="st5" points="-4.1,308.1 370.9,-8.2 368.4,-8.2 -4.1,306 		"/>
	</g>
	<g class="st16">
		<polygon class="st5" points="-4.1,303.4 365.3,-8.2 362.7,-8.2 -4.1,301.2 		"/>
	</g>
	<g class="st17">
		<polygon class="st5" points="-4.1,298.6 359.7,-8.2 357.1,-8.2 -4.1,296.5 		"/>
	</g>
	<g class="st18">
		<polygon class="st5" points="-4.1,293.9 354,-8.2 351.4,-8.2 -4.1,291.7 		"/>
	</g>
	<g class="st19">
		<polygon class="st5" points="-4.1,289.1 348.4,-8.2 345.8,-8.2 -4.1,286.9 		"/>
	</g>
	<g class="st20">
		<polygon class="st5" points="-4.1,284.4 342.7,-8.2 340.2,-8.2 -4.1,282.2 		"/>
	</g>
	<g class="st21">
		<polygon class="st5" points="-4.1,279.6 337.1,-8.2 334.5,-8.2 -4.1,277.4 		"/>
	</g>
	<g class="st22">
		<polygon class="st5" points="-4.1,274.8 331.4,-8.2 328.9,-8.2 -4.1,272.7 		"/>
	</g>
	<g class="st23">
		<polygon class="st5" points="-4.1,270.1 325.8,-8.2 323.2,-8.2 -4.1,267.9 		"/>
	</g>
	<g class="st24">
		<polygon class="st5" points="-4.1,265.3 320.2,-8.2 317.6,-8.2 -4.1,263.2 		"/>
	</g>
	<g class="st25">
		<polygon class="st5" points="-4.1,260.6 314.5,-8.2 312,-8.2 -4.1,258.4 		"/>
	</g>
	<g class="st26">
		<polygon class="st5" points="-4.1,255.8 308.9,-8.2 306.3,-8.2 -4.1,253.6 		"/>
	</g>
	<g class="st27">
		<polygon class="st5" points="-4.1,251.1 303.2,-8.2 300.7,-8.2 -4.1,248.9 		"/>
	</g>
	<g class="st28">
		<polygon class="st5" points="-4.1,246.3 297.6,-8.2 295,-8.2 -4.1,244.1 		"/>
	</g>
	<g class="st29">
		<polygon class="st5" points="-4.1,241.5 292,-8.2 289.4,-8.2 -4.1,239.4 		"/>
	</g>
	<g class="st30">
		<polygon class="st5" points="-4.1,236.8 286.3,-8.2 283.7,-8.2 -4.1,234.6 		"/>
	</g>
	<g class="st31">
		<polygon class="st5" points="-4.1,232 280.7,-8.2 278.1,-8.2 -4.1,229.9 		"/>
	</g>
	<g class="st32">
		<polygon class="st5" points="-4.1,227.3 275,-8.2 272.5,-8.2 -4.1,225.1 		"/>
	</g>
	<g class="st33">
		<polygon class="st5" points="-4.1,222.5 269.4,-8.2 266.8,-8.2 -4.1,220.3 		"/>
	</g>
	<g class="st34">
		<polygon class="st5" points="-4.1,217.8 263.8,-8.2 261.2,-8.2 -4.1,215.6 		"/>
	</g>
	<g class="st35">
		<polygon class="st5" points="-4.1,213 258.1,-8.2 255.5,-8.2 -4.1,210.8 		"/>
	</g>
	<g class="st36">
		<polygon class="st5" points="-4.1,208.2 252.5,-8.2 249.9,-8.2 -4.1,206.1 		"/>
	</g>
	<g class="st37">
		<polygon class="st5" points="-4.1,203.5 246.8,-8.2 244.3,-8.2 -4.1,201.3 		"/>
	</g>
	<g class="st38">
		<polygon class="st5" points="-4.1,198.7 241.2,-8.2 238.6,-8.2 -4.1,196.6 		"/>
	</g>
	<g class="st39">
		<polygon class="st5" points="-4.1,194 235.6,-8.2 233,-8.2 -4.1,191.8 		"/>
	</g>
	<g class="st40">
		<polygon class="st5" points="-4.1,189.2 229.9,-8.2 227.3,-8.2 -4.1,187 		"/>
	</g>
	<g class="st41">
		<polygon class="st5" points="-4.1,184.5 224.3,-8.2 221.7,-8.2 -4.1,182.3 		"/>
	</g>
	<g class="st0">
		<polygon class="st42" points="1003.7,773.3 1371.2,463.4 1371.2,461.8 1001.8,773.3 		"/>
	</g>
	<g class="st6">
		<polygon class="st42" points="1009.6,773.3 1371.2,468.4 1371.2,466.7 1007.7,773.3 		"/>
	</g>
	<g class="st7">
		<polygon class="st42" points="1015.5,773.3 1371.2,473.3 1371.2,471.7 1013.6,773.3 		"/>
	</g>
	<g class="st8">
		<polygon class="st42" points="1021.4,773.3 1371.2,478.3 1371.2,476.7 1019.5,773.3 		"/>
	</g>
	<g class="st9">
		<polygon class="st42" points="1027.3,773.3 1371.2,483.3 1371.2,481.6 1025.4,773.3 		"/>
	</g>
	<g class="st10">
		<polygon class="st5" points="1033.2,773.3 1371.2,488.2 1371.2,486.6 1031.2,773.3 		"/>
	</g>
	<g class="st11">
		<polygon class="st5" points="1039.1,773.3 1371.2,493.2 1371.2,491.6 1037.1,773.3 		"/>
	</g>
	<g class="st12">
		<polygon class="st5" points="1045,773.3 1371.2,498.2 1371.2,496.6 1043,773.3 		"/>
	</g>
	<g class="st13">
		<polygon class="st5" points="1050.9,773.3 1371.2,503.2 1371.2,501.5 1048.9,773.3 		"/>
	</g>
	<g class="st14">
		<polygon class="st5" points="1056.8,773.3 1371.2,508.1 1371.2,506.5 1054.8,773.3 		"/>
	</g>
	<g class="st15">
		<polygon class="st5" points="1062.7,773.3 1371.2,513.1 1371.2,511.5 1060.7,773.3 		"/>
	</g>
	<g class="st16">
		<polygon class="st5" points="1068.6,773.3 1371.2,518.1 1371.2,516.5 1066.6,773.3 		"/>
	</g>
	<g class="st17">
		<polygon class="st5" points="1074.5,773.3 1371.2,523.1 1371.2,521.4 1072.5,773.3 		"/>
	</g>
	<g class="st18">
		<polygon class="st5" points="1080.4,773.3 1371.2,528 1371.2,526.4 1078.4,773.3 		"/>
	</g>
	<g class="st19">
		<polygon class="st5" points="1086.3,773.3 1371.2,533 1371.2,531.4 1084.3,773.3 		"/>
	</g>
	<g class="st20">
		<polygon class="st5" points="1092.2,773.3 1371.2,538 1371.2,536.4 1090.2,773.3 		"/>
	</g>
	<g class="st21">
		<polygon class="st5" points="1098.1,773.3 1371.2,543 1371.2,541.3 1096.1,773.3 		"/>
	</g>
	<g class="st22">
		<polygon class="st5" points="1104,773.3 1371.2,547.9 1371.2,546.3 1102,773.3 		"/>
	</g>
	<g class="st23">
		<polygon class="st5" points="1109.9,773.3 1371.2,552.9 1371.2,551.3 1107.9,773.3 		"/>
	</g>
	<g class="st24">
		<polygon class="st5" points="1115.7,773.3 1371.2,557.9 1371.2,556.2 1113.8,773.3 		"/>
	</g>
	<g class="st25">
		<polygon class="st5" points="1121.6,773.3 1371.2,562.9 1371.2,561.2 1119.7,773.3 		"/>
	</g>
	<g class="st26">
		<polygon class="st5" points="1127.5,773.3 1371.2,567.8 1371.2,566.2 1125.6,773.3 		"/>
	</g>
	<g class="st27">
		<polygon class="st5" points="1133.4,773.3 1371.2,572.8 1371.2,571.2 1131.5,773.3 		"/>
	</g>
	<g class="st28">
		<polygon class="st5" points="1139.3,773.3 1371.2,577.8 1371.2,576.1 1137.4,773.3 		"/>
	</g>
	<g class="st29">
		<polygon class="st5" points="1145.2,773.3 1371.2,582.7 1371.2,581.1 1143.3,773.3 		"/>
	</g>
	<g class="st30">
		<polygon class="st5" points="1151.1,773.3 1371.2,587.7 1371.2,586.1 1149.2,773.3 		"/>
	</g>
	<g class="st31">
		<polygon class="st5" points="1157,773.3 1371.2,592.7 1371.2,591.1 1155.1,773.3 		"/>
	</g>
	<g class="st32">
		<polygon class="st5" points="1162.9,773.3 1371.2,597.7 1371.2,596 1161,773.3 		"/>
	</g>
	<g class="st33">
		<polygon class="st5" points="1168.8,773.3 1371.2,602.6 1371.2,601 1166.9,773.3 		"/>
	</g>
	<g class="st34">
		<polygon class="st5" points="1174.7,773.3 1371.2,607.6 1371.2,606 1172.8,773.3 		"/>
	</g>
	<g class="st35">
		<polygon class="st5" points="1180.6,773.3 1371.2,612.6 1371.2,611 1178.7,773.3 		"/>
	</g>
	<g class="st36">
		<polygon class="st5" points="1186.5,773.3 1371.2,617.6 1371.2,615.9 1184.6,773.3 		"/>
	</g>
	<g class="st37">
		<polygon class="st5" points="1192.4,773.3 1371.2,622.5 1371.2,620.9 1190.5,773.3 		"/>
	</g>
	<g class="st38">
		<polygon class="st5" points="1198.3,773.3 1371.2,627.5 1371.2,625.9 1196.4,773.3 		"/>
	</g>
	<g class="st39">
		<polygon class="st5" points="1204.2,773.3 1371.2,632.5 1371.2,630.9 1202.3,773.3 		"/>
	</g>
	<g class="st40">
		<polygon class="st5" points="1210.1,773.3 1371.2,637.5 1371.2,635.8 1208.2,773.3 		"/>
	</g>
	<g class="st41">
		<polygon class="st5" points="1216,773.3 1371.2,642.4 1371.2,640.8 1214.1,773.3 		"/>
	</g>
</g>
</svg>
