<?xml version="1.0" encoding="utf-8"?>
<!-- Generator: Adobe Illustrator 22.1.0, SVG Export Plug-In . SVG Version: 6.00 Build 0)  -->
<svg version="1.1" id="Livello_1" xmlns="http://www.w3.org/2000/svg" xmlns:xlink="http://www.w3.org/1999/xlink" x="0px" y="0px"
	 viewBox="0 0 595.3 841.9" style="enable-background:new 0 0 595.3 841.9;" xml:space="preserve">
<style type="text/css">
	.st0{fill:#FFFFFF;}
	.st1{fill:none;stroke:#FFFFFF;stroke-width:1.3049;stroke-miterlimit:10;}
	.st2{fill:#FDFEFF;}
	.st3{fill:none;stroke:#FFFFFF;stroke-miterlimit:10;}
	.st4{fill:none;}
</style>
<rect x="166.4" y="624.6" class="st0" width="1.5" height="9.6"/>
<rect x="166.4" y="624.6" transform="matrix(-1.836970e-16 1 -1 -1.836970e-16 796.5588 462.2287)" class="st0" width="1.5" height="9.6"/>
<rect x="152.5" y="638.4" class="st0" width="1.5" height="9.6"/>
<rect x="152.5" y="638.4" transform="matrix(-1.836970e-16 1 -1 -1.836970e-16 796.5588 489.984)" class="st0" width="1.5" height="9.6"/>
<rect x="138.6" y="652.3" class="st0" width="1.5" height="9.6"/>
<rect x="138.6" y="652.3" transform="matrix(-1.836970e-16 1 -1 -1.836970e-16 796.5588 517.7393)" class="st0" width="1.5" height="9.6"/>
<rect x="124.8" y="666.2" class="st0" width="1.5" height="9.6"/>
<rect x="124.8" y="666.2" transform="matrix(-1.836970e-16 1 -1 -1.836970e-16 796.5588 545.4947)" class="st0" width="1.5" height="9.6"/>
<rect x="110.9" y="680.1" class="st0" width="1.5" height="9.6"/>
<rect x="110.9" y="680.1" transform="matrix(-1.836970e-16 1 -1 -1.836970e-16 796.5588 573.2499)" class="st0" width="1.5" height="9.6"/>
<path class="st0" d="M223.4,312.1L120.9,414.6c-4.8,4.8-11.3,7.5-18.1,7.5c-6.8,0-13.3-2.7-18.1-7.5c-4.8-4.8-7.5-11.3-7.5-18.1
	c0-6.8,2.7-13.3,7.5-18.1l66.3-66.3h-1.1l-65.7,65.7c-10.3,10.3-10.3,27,0,37.3c5.1,5.1,11.9,7.7,18.7,7.7c6.8,0,13.5-2.6,18.7-7.7
	l103.1-103.1H223.4z"/>
<path class="st0" d="M326.9,729.3l101.6-101.6c10-10,26.2-10,36.2,0c10,10,10,26.2,0,36.2l-65.4,65.4h1.1l64.8-64.8
	c5-5,7.7-11.6,7.7-18.7c0-7.1-2.7-13.7-7.7-18.7c-10.3-10.3-27.1-10.3-37.3,0L325.8,729.3H326.9z"/>
<path class="st0" d="M108.8,473.8c1.2-1.2,3.1-1.2,4.3,0c1.2,1.2,1.2,3.1,0,4.3c-1.2,1.2-3.1,1.2-4.3,0
	C107.6,476.9,107.6,475,108.8,473.8z"/>
<path class="st1" d="M64.6,511.9c2.8-2.8,7.4-2.8,10.2,0c2.8,2.8,2.8,7.4,0,10.2c-2.8,2.8-7.4,2.8-10.2,0
	C61.8,519.4,61.8,514.8,64.6,511.9z"/>
<circle class="st0" cx="90.6" cy="496.2" r="12.4"/>
<polygon class="st0" points="0,652.2 177.5,474.8 176.9,474.2 0,651.1 "/>
<polygon class="st0" points="0,666.8 131.1,535.7 130.5,535.1 0,665.6 "/>
<polygon class="st0" points="594.1,317.6 414,497.7 414.6,498.3 595.3,317.6 "/>
<polygon class="st0" points="223.1,729.3 351.3,601.1 350.7,600.6 222,729.3 "/>
<polygon class="st2" points="417.4,361.2 464.8,410.9 484.2,345 "/>
<polygon class="st0" points="230.1,661.1 250,682 258.1,654.3 "/>
<polygon class="st0" points="284.2,622.5 290.2,628.7 292.6,620.4 "/>
<polygon class="st0" points="264,637.3 273.7,647.5 277.7,634 "/>
<polygon class="st0" points="379.6,426 396.4,443.6 403.2,420.3 "/>
<polygon class="st0" points="425.2,393.4 430.2,398.7 432.2,391.7 "/>
<polygon class="st0" points="408.2,405.9 416.3,414.5 419.7,403.2 "/>
<g>
	<g>
		<rect x="291.9" y="409.8" class="st0" width="1.1" height="6.8"/>
	</g>
	<g>
		
			<rect x="291.9" y="409.8" transform="matrix(-1.836970e-16 1 -1 -1.836970e-16 705.609 120.829)" class="st0" width="1.1" height="6.8"/>
	</g>
</g>
<g>
	<g>
		<rect x="299.9" y="401.8" class="st0" width="1.1" height="6.8"/>
	</g>
	<g>
		
			<rect x="299.9" y="401.8" transform="matrix(-1.836970e-16 1 -1 -1.836970e-16 705.609 104.7293)" class="st0" width="1.1" height="6.8"/>
	</g>
</g>
<g>
	<g>
		<rect x="308" y="393.7" class="st0" width="1.1" height="6.8"/>
	</g>
	<g>
		
			<rect x="308" y="393.7" transform="matrix(-1.836970e-16 1 -1 -1.836970e-16 705.609 88.6296)" class="st0" width="1.1" height="6.8"/>
	</g>
</g>
<g>
	<g>
		<rect x="316" y="385.7" class="st0" width="1.1" height="6.8"/>
	</g>
	<g>
		
			<rect x="316" y="385.7" transform="matrix(-1.836970e-16 1 -1 -1.836970e-16 705.6091 72.5299)" class="st0" width="1.1" height="6.8"/>
	</g>
</g>
<g>
	<g>
		<rect x="324.1" y="377.6" class="st0" width="1.1" height="6.8"/>
	</g>
	<g>
		
			<rect x="324.1" y="377.6" transform="matrix(-1.836970e-16 1 -1 -1.836970e-16 705.609 56.4302)" class="st0" width="1.1" height="6.8"/>
	</g>
</g>
<g>
	<g>
		<rect x="332.1" y="369.6" class="st0" width="1.1" height="6.8"/>
	</g>
	<g>
		
			<rect x="332.1" y="369.6" transform="matrix(-1.836970e-16 1 -1 -1.836970e-16 705.6091 40.3304)" class="st0" width="1.1" height="6.8"/>
	</g>
</g>
<g>
	<g>
		<rect x="340.2" y="361.5" class="st0" width="1.1" height="6.8"/>
	</g>
	<g>
		
			<rect x="340.2" y="361.5" transform="matrix(-1.836970e-16 1 -1 -1.836970e-16 705.609 24.2307)" class="st0" width="1.1" height="6.8"/>
	</g>
</g>
<g>
	<g>
		<rect x="348.2" y="353.5" class="st0" width="1.1" height="6.8"/>
	</g>
	<g>
		
			<rect x="348.2" y="353.5" transform="matrix(-1.836970e-16 1 -1 -1.836970e-16 705.609 8.131)" class="st0" width="1.1" height="6.8"/>
	</g>
</g>
<g>
	<g>
		<rect x="356.3" y="345.4" class="st0" width="1.1" height="6.8"/>
	</g>
	<g>
		
			<rect x="356.3" y="345.4" transform="matrix(-1.836970e-16 1 -1 -1.836970e-16 705.609 -7.9687)" class="st0" width="1.1" height="6.8"/>
	</g>
</g>
<g>
	<g>
		<rect x="364.3" y="337.4" class="st0" width="1.1" height="6.8"/>
	</g>
	<g>
		
			<rect x="364.3" y="337.4" transform="matrix(-1.836970e-16 1 -1 -1.836970e-16 705.609 -24.0684)" class="st0" width="1.1" height="6.8"/>
	</g>
</g>
<g>
	<g>
		<rect x="299.2" y="417.2" class="st0" width="1.1" height="6.8"/>
	</g>
	<g>
		
			<rect x="299.2" y="417.2" transform="matrix(-1.836970e-16 1 -1 -1.836970e-16 720.2564 120.829)" class="st0" width="1.1" height="6.8"/>
	</g>
</g>
<g>
	<g>
		<rect x="307.2" y="409.1" class="st0" width="1.1" height="6.8"/>
	</g>
	<g>
		
			<rect x="307.2" y="409.1" transform="matrix(-1.836970e-16 1 -1 -1.836970e-16 720.2563 104.7293)" class="st0" width="1.1" height="6.8"/>
	</g>
</g>
<g>
	<g>
		<rect x="315.3" y="401.1" class="st0" width="1.1" height="6.8"/>
	</g>
	<g>
		
			<rect x="315.3" y="401.1" transform="matrix(-1.836970e-16 1 -1 -1.836970e-16 720.2564 88.6296)" class="st0" width="1.1" height="6.8"/>
	</g>
</g>
<g>
	<g>
		<rect x="323.3" y="393" class="st0" width="1.1" height="6.8"/>
	</g>
	<g>
		
			<rect x="323.3" y="393" transform="matrix(-1.836970e-16 1 -1 -1.836970e-16 720.2563 72.5299)" class="st0" width="1.1" height="6.8"/>
	</g>
</g>
<g>
	<g>
		<rect x="331.4" y="385" class="st0" width="1.1" height="6.8"/>
	</g>
	<g>
		
			<rect x="331.4" y="385" transform="matrix(-1.836970e-16 1 -1 -1.836970e-16 720.2564 56.4302)" class="st0" width="1.1" height="6.8"/>
	</g>
</g>
<g>
	<g>
		<rect x="339.4" y="376.9" class="st0" width="1.1" height="6.8"/>
	</g>
	<g>
		
			<rect x="339.4" y="376.9" transform="matrix(-1.836970e-16 1 -1 -1.836970e-16 720.2563 40.3304)" class="st0" width="1.1" height="6.8"/>
	</g>
</g>
<g>
	<g>
		<rect x="347.5" y="368.9" class="st0" width="1.1" height="6.8"/>
	</g>
	<g>
		
			<rect x="347.5" y="368.9" transform="matrix(-1.836970e-16 1 -1 -1.836970e-16 720.2564 24.2307)" class="st0" width="1.1" height="6.8"/>
	</g>
</g>
<g>
	<g>
		<rect x="355.5" y="360.8" class="st0" width="1.1" height="6.8"/>
	</g>
	<g>
		
			<rect x="355.5" y="360.8" transform="matrix(-1.836970e-16 1 -1 -1.836970e-16 720.2563 8.131)" class="st0" width="1.1" height="6.8"/>
	</g>
</g>
<g>
	<g>
		<rect x="363.6" y="352.8" class="st0" width="1.1" height="6.8"/>
	</g>
	<g>
		
			<rect x="363.6" y="352.8" transform="matrix(-1.836970e-16 1 -1 -1.836970e-16 720.2564 -7.9687)" class="st0" width="1.1" height="6.8"/>
	</g>
</g>
<g>
	<g>
		<rect x="371.6" y="344.7" class="st0" width="1.1" height="6.8"/>
	</g>
	<g>
		
			<rect x="371.6" y="344.7" transform="matrix(-1.836970e-16 1 -1 -1.836970e-16 720.2563 -24.0684)" class="st0" width="1.1" height="6.8"/>
	</g>
</g>
<g>
	<g>
		<rect x="306.5" y="424.5" class="st0" width="1.1" height="6.8"/>
	</g>
	<g>
		
			<rect x="306.5" y="424.5" transform="matrix(-1.836970e-16 1 -1 -1.836970e-16 734.9038 120.829)" class="st0" width="1.1" height="6.8"/>
	</g>
</g>
<g>
	<g>
		<rect x="314.6" y="416.4" class="st0" width="1.1" height="6.8"/>
	</g>
	<g>
		
			<rect x="314.6" y="416.4" transform="matrix(-1.836970e-16 1 -1 -1.836970e-16 734.9037 104.7293)" class="st0" width="1.1" height="6.8"/>
	</g>
</g>
<g>
	<g>
		<rect x="322.6" y="408.4" class="st0" width="1.1" height="6.8"/>
	</g>
	<g>
		
			<rect x="322.6" y="408.4" transform="matrix(-1.836970e-16 1 -1 -1.836970e-16 734.9037 88.6296)" class="st0" width="1.1" height="6.8"/>
	</g>
</g>
<g>
	<g>
		<rect x="330.7" y="400.3" class="st0" width="1.1" height="6.8"/>
	</g>
	<g>
		
			<rect x="330.7" y="400.3" transform="matrix(-1.836970e-16 1 -1 -1.836970e-16 734.9037 72.5299)" class="st0" width="1.1" height="6.8"/>
	</g>
</g>
<g>
	<g>
		<rect x="338.7" y="392.3" class="st0" width="1.1" height="6.8"/>
	</g>
	<g>
		
			<rect x="338.7" y="392.3" transform="matrix(-1.836970e-16 1 -1 -1.836970e-16 734.9037 56.4302)" class="st0" width="1.1" height="6.8"/>
	</g>
</g>
<g>
	<g>
		<rect x="346.8" y="384.2" class="st0" width="1.1" height="6.8"/>
	</g>
	<g>
		
			<rect x="346.8" y="384.2" transform="matrix(-1.836970e-16 1 -1 -1.836970e-16 734.9037 40.3304)" class="st0" width="1.1" height="6.8"/>
	</g>
</g>
<g>
	<g>
		<rect x="354.8" y="376.2" class="st0" width="1.1" height="6.8"/>
	</g>
	<g>
		
			<rect x="354.8" y="376.2" transform="matrix(-1.836970e-16 1 -1 -1.836970e-16 734.9037 24.2307)" class="st0" width="1.1" height="6.8"/>
	</g>
</g>
<g>
	<g>
		<rect x="362.9" y="368.1" class="st0" width="1.1" height="6.8"/>
	</g>
	<g>
		
			<rect x="362.9" y="368.1" transform="matrix(-1.836970e-16 1 -1 -1.836970e-16 734.9037 8.131)" class="st0" width="1.1" height="6.8"/>
	</g>
</g>
<g>
	<g>
		<rect x="370.9" y="360.1" class="st0" width="1.1" height="6.8"/>
	</g>
	<g>
		
			<rect x="370.9" y="360.1" transform="matrix(-1.836970e-16 1 -1 -1.836970e-16 734.9037 -7.9687)" class="st0" width="1.1" height="6.8"/>
	</g>
</g>
<g>
	<g>
		<rect x="379" y="352" class="st0" width="1.1" height="6.8"/>
	</g>
	<g>
		
			<rect x="379" y="352" transform="matrix(-1.836970e-16 1 -1 -1.836970e-16 734.9037 -24.0684)" class="st0" width="1.1" height="6.8"/>
	</g>
</g>
<rect x="291.9" y="409.8" class="st0" width="1.1" height="6.8"/>
<rect x="291.9" y="409.8" transform="matrix(-1.836970e-16 1 -1 -1.836970e-16 705.609 120.829)" class="st0" width="1.1" height="6.8"/>
<rect x="331.4" y="385" class="st0" width="1.1" height="6.8"/>
<rect x="331.4" y="385" transform="matrix(-1.836970e-16 1 -1 -1.836970e-16 720.2564 56.4302)" class="st0" width="1.1" height="6.8"/>
<rect x="370.9" y="360.1" class="st0" width="1.1" height="6.8"/>
<rect x="370.9" y="360.1" transform="matrix(-1.836970e-16 1 -1 -1.836970e-16 734.9037 -7.9687)" class="st0" width="1.1" height="6.8"/>
<g>
	<g>
		<rect x="289.1" y="683.4" class="st0" width="1.1" height="6.8"/>
	</g>
	<g>
		
			<rect x="289.1" y="683.4" transform="matrix(-1.836970e-16 1 -1 -1.836970e-16 976.4356 397.1843)" class="st0" width="1.1" height="6.8"/>
	</g>
</g>
<g>
	<g>
		<rect x="297.1" y="675.4" class="st0" width="1.1" height="6.8"/>
	</g>
	<g>
		
			<rect x="297.1" y="675.4" transform="matrix(-1.836970e-16 1 -1 -1.836970e-16 976.4356 381.0845)" class="st0" width="1.1" height="6.8"/>
	</g>
</g>
<g>
	<g>
		<rect x="305.2" y="667.3" class="st0" width="1.1" height="6.8"/>
	</g>
	<g>
		
			<rect x="305.2" y="667.3" transform="matrix(-1.836970e-16 1 -1 -1.836970e-16 976.4355 364.9849)" class="st0" width="1.1" height="6.8"/>
	</g>
</g>
<g>
	<g>
		<rect x="313.2" y="659.3" class="st0" width="1.1" height="6.8"/>
	</g>
	<g>
		
			<rect x="313.2" y="659.3" transform="matrix(-1.836970e-16 1 -1 -1.836970e-16 976.4356 348.8851)" class="st0" width="1.1" height="6.8"/>
	</g>
</g>
<g>
	<g>
		<rect x="321.3" y="651.2" class="st0" width="1.1" height="6.8"/>
	</g>
	<g>
		
			<rect x="321.3" y="651.2" transform="matrix(-1.836970e-16 1 -1 -1.836970e-16 976.4356 332.7854)" class="st0" width="1.1" height="6.8"/>
	</g>
</g>
<g>
	<g>
		<rect x="329.3" y="643.2" class="st0" width="1.1" height="6.8"/>
	</g>
	<g>
		
			<rect x="329.3" y="643.2" transform="matrix(-1.836970e-16 1 -1 -1.836970e-16 976.4356 316.6857)" class="st0" width="1.1" height="6.8"/>
	</g>
</g>
<g>
	<g>
		<rect x="337.4" y="635.1" class="st0" width="1.1" height="6.8"/>
	</g>
	<g>
		
			<rect x="337.4" y="635.1" transform="matrix(-1.836970e-16 1 -1 -1.836970e-16 976.4356 300.586)" class="st0" width="1.1" height="6.8"/>
	</g>
</g>
<g>
	<g>
		<rect x="345.4" y="627.1" class="st0" width="1.1" height="6.8"/>
	</g>
	<g>
		
			<rect x="345.4" y="627.1" transform="matrix(-1.836970e-16 1 -1 -1.836970e-16 976.4356 284.4863)" class="st0" width="1.1" height="6.8"/>
	</g>
</g>
<g>
	<g>
		<rect x="353.5" y="619" class="st0" width="1.1" height="6.8"/>
	</g>
	<g>
		
			<rect x="353.5" y="619" transform="matrix(-1.836970e-16 1 -1 -1.836970e-16 976.4355 268.3865)" class="st0" width="1.1" height="6.8"/>
	</g>
</g>
<g>
	<g>
		<rect x="361.5" y="611" class="st0" width="1.1" height="6.8"/>
	</g>
	<g>
		
			<rect x="361.5" y="611" transform="matrix(-1.836970e-16 1 -1 -1.836970e-16 976.4356 252.2869)" class="st0" width="1.1" height="6.8"/>
	</g>
</g>
<g>
	<g>
		<rect x="296.4" y="690.7" class="st0" width="1.1" height="6.8"/>
	</g>
	<g>
		
			<rect x="296.4" y="690.7" transform="matrix(-1.836970e-16 1 -1 -1.836970e-16 991.0829 397.1842)" class="st0" width="1.1" height="6.8"/>
	</g>
</g>
<g>
	<g>
		<rect x="304.5" y="682.7" class="st0" width="1.1" height="6.8"/>
	</g>
	<g>
		
			<rect x="304.5" y="682.7" transform="matrix(-1.836970e-16 1 -1 -1.836970e-16 991.083 381.0846)" class="st0" width="1.1" height="6.8"/>
	</g>
</g>
<g>
	<g>
		<rect x="312.5" y="674.6" class="st0" width="1.1" height="6.8"/>
	</g>
	<g>
		
			<rect x="312.5" y="674.6" transform="matrix(-1.836970e-16 1 -1 -1.836970e-16 991.0829 364.9848)" class="st0" width="1.1" height="6.8"/>
	</g>
</g>
<g>
	<g>
		<rect x="320.6" y="666.6" class="st0" width="1.1" height="6.8"/>
	</g>
	<g>
		
			<rect x="320.6" y="666.6" transform="matrix(-1.836970e-16 1 -1 -1.836970e-16 991.083 348.8852)" class="st0" width="1.1" height="6.8"/>
	</g>
</g>
<g>
	<g>
		<rect x="328.6" y="658.5" class="st0" width="1.1" height="6.8"/>
	</g>
	<g>
		
			<rect x="328.6" y="658.5" transform="matrix(-1.836970e-16 1 -1 -1.836970e-16 991.0829 332.7854)" class="st0" width="1.1" height="6.8"/>
	</g>
</g>
<g>
	<g>
		<rect x="336.7" y="650.5" class="st0" width="1.1" height="6.8"/>
	</g>
	<g>
		
			<rect x="336.7" y="650.5" transform="matrix(-1.836970e-16 1 -1 -1.836970e-16 991.083 316.6857)" class="st0" width="1.1" height="6.8"/>
	</g>
</g>
<g>
	<g>
		<rect x="344.7" y="642.4" class="st0" width="1.1" height="6.8"/>
	</g>
	<g>
		
			<rect x="344.7" y="642.4" transform="matrix(-1.836970e-16 1 -1 -1.836970e-16 991.0829 300.586)" class="st0" width="1.1" height="6.8"/>
	</g>
</g>
<g>
	<g>
		<rect x="352.8" y="634.4" class="st0" width="1.1" height="6.8"/>
	</g>
	<g>
		
			<rect x="352.8" y="634.4" transform="matrix(-1.836970e-16 1 -1 -1.836970e-16 991.0829 284.4863)" class="st0" width="1.1" height="6.8"/>
	</g>
</g>
<g>
	<g>
		<rect x="360.8" y="626.3" class="st0" width="1.1" height="6.8"/>
	</g>
	<g>
		
			<rect x="360.8" y="626.3" transform="matrix(-1.836970e-16 1 -1 -1.836970e-16 991.0829 268.3866)" class="st0" width="1.1" height="6.8"/>
	</g>
</g>
<g>
	<g>
		<rect x="368.9" y="618.3" class="st0" width="1.1" height="6.8"/>
	</g>
	<g>
		
			<rect x="368.9" y="618.3" transform="matrix(-1.836970e-16 1 -1 -1.836970e-16 991.083 252.2868)" class="st0" width="1.1" height="6.8"/>
	</g>
</g>
<g>
	<g>
		<rect x="303.7" y="698.1" class="st0" width="1.1" height="6.8"/>
	</g>
	<g>
		
			<rect x="303.7" y="698.1" transform="matrix(-1.836970e-16 1 -1 -1.836970e-16 1005.7303 397.1843)" class="st0" width="1.1" height="6.8"/>
	</g>
</g>
<g>
	<g>
		<rect x="311.8" y="690" class="st0" width="1.1" height="6.8"/>
	</g>
	<g>
		
			<rect x="311.8" y="690" transform="matrix(-1.836970e-16 1 -1 -1.836970e-16 1005.7303 381.0846)" class="st0" width="1.1" height="6.8"/>
	</g>
</g>
<g>
	<g>
		<rect x="319.8" y="682" class="st0" width="1.1" height="6.8"/>
	</g>
	<g>
		
			<rect x="319.8" y="682" transform="matrix(-1.836970e-16 1 -1 -1.836970e-16 1005.7303 364.9849)" class="st0" width="1.1" height="6.8"/>
	</g>
</g>
<g>
	<g>
		<rect x="327.9" y="673.9" class="st0" width="1.1" height="6.8"/>
	</g>
	<g>
		
			<rect x="327.9" y="673.9" transform="matrix(-1.836970e-16 1 -1 -1.836970e-16 1005.7303 348.8851)" class="st0" width="1.1" height="6.8"/>
	</g>
</g>
<g>
	<g>
		<rect x="335.9" y="665.9" class="st0" width="1.1" height="6.8"/>
	</g>
	<g>
		
			<rect x="335.9" y="665.9" transform="matrix(-1.836970e-16 1 -1 -1.836970e-16 1005.7303 332.7854)" class="st0" width="1.1" height="6.8"/>
	</g>
</g>
<g>
	<g>
		<rect x="344" y="657.8" class="st0" width="1.1" height="6.8"/>
	</g>
	<g>
		
			<rect x="344" y="657.8" transform="matrix(-1.836970e-16 1 -1 -1.836970e-16 1005.7303 316.6857)" class="st0" width="1.1" height="6.8"/>
	</g>
</g>
<g>
	<g>
		<rect x="352" y="649.8" class="st0" width="1.1" height="6.8"/>
	</g>
	<g>
		
			<rect x="352" y="649.8" transform="matrix(-1.836970e-16 1 -1 -1.836970e-16 1005.7303 300.586)" class="st0" width="1.1" height="6.8"/>
	</g>
</g>
<g>
	<g>
		<rect x="360.1" y="641.7" class="st0" width="1.1" height="6.8"/>
	</g>
	<g>
		
			<rect x="360.1" y="641.7" transform="matrix(-1.836970e-16 1 -1 -1.836970e-16 1005.7303 284.4862)" class="st0" width="1.1" height="6.8"/>
	</g>
</g>
<g>
	<g>
		<rect x="368.1" y="633.7" class="st0" width="1.1" height="6.8"/>
	</g>
	<g>
		
			<rect x="368.1" y="633.7" transform="matrix(-1.836970e-16 1 -1 -1.836970e-16 1005.7303 268.3866)" class="st0" width="1.1" height="6.8"/>
	</g>
</g>
<g>
	<g>
		<rect x="376.2" y="625.6" class="st0" width="1.1" height="6.8"/>
	</g>
	<g>
		
			<rect x="376.2" y="625.6" transform="matrix(-1.836970e-16 1 -1 -1.836970e-16 1005.7303 252.2868)" class="st0" width="1.1" height="6.8"/>
	</g>
</g>
<rect x="289.1" y="683.4" class="st0" width="1.1" height="6.8"/>
<rect x="289.1" y="683.4" transform="matrix(-1.836970e-16 1 -1 -1.836970e-16 976.4356 397.1843)" class="st0" width="1.1" height="6.8"/>
<rect x="328.6" y="658.5" class="st0" width="1.1" height="6.8"/>
<rect x="328.6" y="658.5" transform="matrix(-1.836970e-16 1 -1 -1.836970e-16 991.0829 332.7854)" class="st0" width="1.1" height="6.8"/>
<rect x="368.1" y="633.7" class="st0" width="1.1" height="6.8"/>
<rect x="368.1" y="633.7" transform="matrix(-1.836970e-16 1 -1 -1.836970e-16 1005.7303 268.3866)" class="st0" width="1.1" height="6.8"/>
<ellipse transform="matrix(0.7071 -0.7071 0.7071 0.7071 -248.2367 278.7464)" class="st3" cx="212.4" cy="439" rx="49.9" ry="49.9"/>
<path class="st0" d="M98.6,748.4c-27.7,0-50.3-22.6-50.3-50.3s22.6-50.3,50.3-50.3c27.7,0,50.3,22.6,50.3,50.3
	S126.3,748.4,98.6,748.4z M98.6,648.6c-27.3,0-49.5,22.2-49.5,49.5c0,27.3,22.2,49.5,49.5,49.5s49.5-22.2,49.5-49.5
	C148.1,670.8,125.9,648.6,98.6,648.6z"/>
<rect x="1.8" y="321.9" transform="matrix(6.123234e-17 -1 1 6.123234e-17 -218.9232 829.5115)" class="st4" width="606.9" height="404.6"/>
</svg>
