<?xml version="1.0" encoding="utf-8"?>
<!-- Generator: Adobe Illustrator 22.1.0, SVG Export Plug-In . SVG Version: 6.00 Build 0)  -->
<svg version="1.1" id="Livello_1" xmlns="http://www.w3.org/2000/svg" xmlns:xlink="http://www.w3.org/1999/xlink" x="0px" y="0px"
	 viewBox="0 0 1000 1000" style="enable-background:new 0 0 1000 1000;" xml:space="preserve">
<style type="text/css">
	.st0{fill:#010101;}
	.st1{fill:#212121;stroke:#FFFFFF;stroke-miterlimit:10;}
</style>
<g>
	<g>
		<polygon class="st0" points="786.8,0.1 786.6,113.5 786.5,113.5 786.5,0.1 		"/>
	</g>
</g>
<path class="st1" d="M633.8,886.7l62.8,113.3H450.5C202,1000,0,775.8,0,500c0-275.6,202-500,450.5-500h193.1v113.4H450.5
	c-192.1,0-348.4,173.4-348.4,386.6c0,213.2,156.2,386.6,348.4,386.6H633.8z"/>
<path class="st0" d="M1000,1000H737.4l-88-158.7H450.5C280.9,841.3,143,688.3,143,500c0-188.2,137.9-341.2,307.4-341.2h233.9V0.1
	h102.2l-0.2,272.1H450.5c-113.2,0-205.4,102.2-205.4,227.8c0,125.7,92.1,227.9,205.4,227.9h136.2l-0.2-0.4h102.2l88,159.2h40.7
	L704.4,682.6H450.5c-28.2,0-51.1-25.4-51.1-56.7c0-31.2,22.9-56.7,51.1-56.7h311.1L1000,1000z"/>
<rect x="684.4" class="st0" width="102.2" height="0.1"/>
<line class="st0" x1="786.5" y1="272.2" x2="786.3" y2="272.2"/>
</svg>
