<?xml version="1.0" encoding="utf-8"?>
<!-- Generator: Adobe Illustrator 22.1.0, SVG Export Plug-In . SVG Version: 6.00 Build 0)  -->
<svg version="1.1" id="Livello_1" xmlns="http://www.w3.org/2000/svg" xmlns:xlink="http://www.w3.org/1999/xlink" x="0px" y="0px"
	 viewBox="0 0 500 500" style="enable-background:new 0 0 500 500;" xml:space="preserve">
<style type="text/css">
	.st0{fill:#010101;}
	.st1{fill:#212121;}
</style>
<g>
	<g>
		<polygon class="st0" points="393.4,0 393.3,56.7 393.3,56.7 393.3,0 		"/>
	</g>
</g>
<path class="st1" d="M316.9,443.3l31.4,56.7H225.2C101,500,0,387.9,0,250C0,112.2,101,0,225.2,0h96.5v56.7h-96.5
	C129.2,56.7,51,143.4,51,250c0,106.6,78.1,193.3,174.2,193.3H316.9z"/>
<path class="st0" d="M500,500H368.7l-44-79.4h-99.5c-84.8,0-153.7-76.5-153.7-170.6c0-94.1,69-170.6,153.7-170.6h116.9V0h51.1
	l-0.1,136.1H225.2c-56.6,0-102.7,51.1-102.7,113.9c0,62.8,46.1,114,102.7,114h68.1l-0.1-0.2h51.1l44,79.6h20.3l-56.5-102h-127
	c-14.1,0-25.6-12.7-25.6-28.4c0-15.6,11.4-28.3,25.6-28.3h155.5L500,500z"/>
<rect x="342.2" class="st0" width="51.1" height="0"/>
<line class="st0" x1="393.3" y1="136.1" x2="393.1" y2="136.1"/>
</svg>
